#  wavefront obj file written by the visualization toolkit

mtllib shape1.mtl

v -0.5106199979782104 -0.5022199749946594 1.3699100017547607
v -0.5234799981117249 -0.4803999960422516 1.3776099681854248
v 1.0665700435638428 -0.4514999985694885 0.6857900023460388
v 1.0861400365829468 -0.37466999888420105 0.6845899820327759
v 0.6777999997138977 0.5309699773788452 0.9495499730110168
v -0.5316399931907654 0.5331900119781494 1.4780800342559814
v -1.589709997177124 -0.291130006313324 0.89028000831604
v -0.7906000018119812 0.5167099833488464 1.3532899618148804
v 1.0667500495910645 -0.45083001255989075 0.6818699836730957
v 1.0780999660491943 -0.4076099991798401 0.4297100007534027
v 1.1194900274276733 -0.24422000348567963 -0.5231099724769592
v 1.118090033531189 -0.2502799928188324 -0.4877600073814392
v -2.093410015106201 -0.13097000122070312 -0.37876999378204346
v -1.679229974746704 -0.352400004863739 0.7957199811935425
v -1.8362900018692017 -0.1016400009393692 -0.6117900013923645
v -0.18020999431610107 -0.06954000145196915 -1.208109974861145
v 1.025089979171753 -0.18497000634670258 -0.8414199948310852
v -1.8644800186157227 0.3458000123500824 -0.6043000221252441
v 1.2574100494384766 0.4737600088119507 -0.09181000292301178
v 0.8788400292396545 0.41464000940322876 -0.7659900188446045
v -0.4052700102329254 0.3399600088596344 -1.286270022392273
v -1.5620900392532349 0.3352699875831604 -0.8765400052070618
v 1.2922799587249756 0.42932000756263733 -0.13223999738693237
v 1.0946999788284302 0.2783200144767761 -0.7310199737548828
v 1.0236899852752686 -0.05821000039577484 -0.8769999742507935
v -0.21794000267982483 0.1526300013065338 -1.280269980430603

g grp1
usemtl mtl1
f 1 10 9 
f 1 9 3 
f 1 14 10 
f 1 2 7 
f 1 6 2 
f 1 3 4 
f 1 4 5 
f 1 7 14 
f 1 5 6 
f 2 6 7 
f 3 9 4 
f 4 9 23 
f 4 23 5 
f 5 23 19 
f 5 19 22 
f 5 22 6 
f 6 8 7 
f 6 18 8 
f 6 22 18 
f 7 8 13 
f 7 13 14 
f 8 18 13 
f 9 10 23 
f 10 11 12 
f 10 12 23 
f 10 14 11 
f 11 23 12 
f 11 14 16 
f 11 16 17 
f 11 17 23 
f 13 16 14 
f 13 15 16 
f 13 18 15 
f 15 26 16 
f 15 21 26 
f 15 22 21 
f 15 18 22 
f 16 26 17 
f 17 25 24 
f 17 24 23 
f 17 26 25 
f 19 23 20 
f 19 20 22 
f 20 24 25 
f 20 23 24 
f 20 25 26 
f 20 26 21 
f 20 21 22 
