#  wavefront obj file written by the visualization toolkit

mtllib shape3.mtl

v 0.39149999618530273 -0.9083499908447266 -0.3020800054073334
v 0.017389999702572823 -0.48249000310897827 -0.8272799849510193
v 0.9649800062179565 -0.40321001410484314 0.503000020980835
v 0.017389999702572823 0.48249000310897827 -0.8272799849510193
v 0.39149999618530273 0.9083499908447266 -0.3020800054073334
v 0.9649800062179565 0.40321001410484314 0.503000020980835
v 0.25053998827934265 -0.7931600213050842 1.0401500463485718
v 0.25053998827934265 0.7931600213050842 1.0401500463485718
v -0.7253400087356567 0.3421899974346161 -0.6340299844741821
v -0.7253400087356567 0.5577200055122375 -0.25626999139785767
v -0.1737300008535385 1.1619000434875488 0.47652000188827515
v -0.7253400087356567 -0.3421899974346161 -0.6340299844741821
v -0.7253400087356567 -0.5577200055122375 -0.25626999139785767
v -0.1737300008535385 -1.1619000434875488 0.47652000188827515

g grp1
usemtl mtl1
f 1 12 2 
f 1 14 12 
f 1 7 14 
f 1 3 7 
f 1 2 3 
f 2 4 6 3 
f 2 12 9 4 
f 3 6 8 7 
f 4 5 6 
f 4 9 5 
f 5 8 6 
f 5 11 8 
f 5 9 11 
f 7 8 10 13 
f 7 13 14 
f 8 11 10 
f 9 12 13 10 
f 9 10 11 
f 12 14 13 
