#  wavefront obj file written by the visualization toolkit

mtllib shape0.mtl

v -0.5880200266838074 1.6841700077056885 -0.5241100192070007
v -0.024469999596476555 1.0669200420379639 -1.272760033607483
v -1.1975699663162231 1.074620008468628 0.28565001487731934
v -1.1975699663162231 -0.9351000189781189 0.28565001487731934
v -0.024469999596476555 -0.9273999929428101 -1.272760033607483
v -0.5880200266838074 -1.5446499586105347 -0.5241100192070007
v 0.539080023765564 1.6841700077056885 -0.5241100192070007
v 1.1486300230026245 -0.9351000189781189 0.28565001487731934
v 0.5434200167655945 -1.540310025215149 -0.518339991569519
v 0.5339900255203247 -1.5390700101852417 -0.5308700203895569
v 1.1486300230026245 1.074620008468628 0.28565001487731934
v 0.535290002822876 1.6879500150680542 -0.5195199847221375
v 1.1299899816513062 1.093250036239624 0.3153499960899353
v -0.5842300057411194 1.6879500150680542 -0.5195199847221375
v -1.1789300441741943 1.093250036239624 0.3153499960899353
v 0.5684800148010254 0.4557799994945526 1.210279941558838
v -0.6174200177192688 0.4557799994945526 1.210279941558838
v -1.1789300441741943 -0.9537299871444702 0.3153499960899353
v -0.5842300057411194 -1.5484299659729004 -0.5195199847221375
v 1.1299899816513062 -0.9537299871444702 0.3153499960899353
v 0.535290002822876 -1.5484299659729004 -0.5195199847221375
v 0.5684800148010254 -0.3162600100040436 1.210279941558838
v -0.6174200177192688 -0.3162600100040436 1.210279941558838

g grp1
usemtl mtl1
f 1 14 12 7 
f 1 6 4 3 
f 1 2 5 6 
f 1 7 2 
f 1 15 14 
f 1 3 15 
f 2 7 5 
f 3 4 23 17 
f 3 17 15 
f 4 18 23 
f 4 6 18 
f 5 8 10 
f 5 10 21 
f 5 7 8 
f 5 21 6 
f 6 21 19 
f 6 19 18 
f 7 12 13 
f 7 13 11 
f 7 11 8 
f 8 11 16 22 
f 8 9 10 
f 8 20 9 
f 8 22 20 
f 9 21 10 
f 9 20 21 
f 11 13 16 
f 12 14 17 16 
f 12 16 13 
f 14 15 17 
f 16 17 23 22 
f 18 19 23 
f 19 21 22 23 
f 20 22 21 
