#  wavefront obj file written by the visualization toolkit

mtllib shape3.mtl

v 1.667549967765808 0.4924600124359131 0.1273999959230423
v 0.7025600075721741 0.3231399953365326 1.3437000513076782
v -0.44696998596191406 0.4109100103378296 1.1227699518203735
v 0.27553001046180725 0.3198699951171875 1.4685900211334229
v -0.776669979095459 0.49884000420570374 0.6973699927330017
v 0.5016700029373169 0.7270900011062622 -0.9366700053215027
v -0.5604199767112732 0.7150899767875671 -0.6037600040435791
v 0.5047000050544739 0.726859986782074 -0.9360799789428711
v -0.38471999764442444 -0.7641299962997437 -1.250100016593933
v -0.38144999742507935 -0.3371100127696991 -1.3749799728393555
v -0.47249001264572144 0.3853900134563446 -1.0291600227355957
v -0.788670003414154 -0.5632399916648865 1.0302799940109253
v -0.5540400147438049 -1.7291200160980225 -0.03378999978303909
v 1.680050015449524 -0.42493000626564026 0.41238000988960266
v -0.2277899980545044 0.15202000737190247 -1.3899500370025635
v 0.3633500039577484 -1.741629958152771 -0.31876999139785767
v -0.238319993019104 0.13325999677181244 -1.393339991569519
v -0.19483999907970428 0.17674000561237335 1.4869500398635864
v -0.21359999477863312 0.16620999574661255 1.4835599660873413
v -0.24048000574111938 0.15338000655174255 -1.3841700553894043
v -0.2149599939584732 0.17890000343322754 1.4777799844741821

g grp1
usemtl mtl1
f 1 9 8 
f 1 8 4 
f 1 4 2 
f 1 2 14 
f 1 16 9 
f 1 14 16 
f 2 4 14 
f 3 5 21 
f 3 7 5 
f 3 21 4 
f 3 4 7 
f 4 21 18 
f 4 18 13 
f 4 8 7 
f 4 13 14 
f 5 7 11 
f 5 11 10 
f 5 12 21 
f 5 10 13 
f 5 13 12 
f 6 15 20 
f 6 8 15 
f 6 20 7 
f 6 7 8 
f 7 20 11 
f 8 17 15 
f 8 9 10 
f 8 10 17 
f 9 13 10 
f 9 16 13 
f 10 11 20 
f 10 20 17 
f 12 19 21 
f 12 13 19 
f 13 18 19 
f 13 16 14 
f 15 17 20 
f 18 21 19 
