#  wavefront obj file written by the visualization toolkit

mtllib shape4.mtl

v -1.1493799686431885 0.00343999988399446 1.407420039176941
v 1.4172600507736206 0.00343999988399446 1.407420039176941
v 1.8751300573349 0.5369399785995483 1.28233003616333
v 1.8751300573349 0.3551900088787079 1.3249499797821045
v -1.60725998878479 0.3551900088787079 1.3249499797821045
v -1.60725998878479 0.5369399785995483 1.28233003616333
v -1.4525099992752075 0.669730007648468 1.2511999607086182
v 1.7203799486160278 0.669730007648468 1.2511999607086182
v -0.4489299952983856 -0.88441002368927 -1.0015599727630615
v 0.7167999744415283 -0.88441002368927 -1.0015599727630615
v 1.8751300573349 0.6208599805831909 1.1001900434494019
v 1.8751300573349 0.10372000187635422 -0.4977799952030182
v -1.60725998878479 0.4237099885940552 0.49097999930381775
v -1.60725998878479 0.10372000187635422 -0.4977799952030182
v -1.1331199407577515 -0.08487000316381454 -1.080549955368042
v 0.13393999636173248 -0.1485700011253357 -1.2773799896240234
v -1.543969988822937 0.01623000018298626 -0.7681400179862976
v -1.60725998878479 0.6208599805831909 1.1001900434494019
v 1.8118400573730469 0.01623000018298626 -0.7681400179862976
v 1.4010000228881836 -0.08487000316381454 -1.080549955368042
v -0.6601899862289429 -0.7313500046730042 -1.106600046157837
v 0.13393999636173248 -0.5241699814796448 -1.2487800121307373
v -0.8302199840545654 -0.5942100286483765 -1.0899800062179565
v 0.9280700087547302 -0.7313500046730042 -1.106600046157837
v 1.098099946975708 -0.5942100286483765 -1.0899800062179565

g grp1
usemtl mtl1
f 1 2 4 5 
f 1 9 10 2 
f 1 5 14 
f 1 14 9 
f 2 10 12 
f 2 12 4 
f 3 4 12 11 
f 3 11 8 
f 3 8 4 
f 4 8 7 5 
f 5 6 18 13 14 
f 5 7 6 
f 6 7 18 
f 7 8 13 
f 7 13 18 
f 8 20 13 
f 8 11 20 
f 9 21 24 10 
f 9 14 17 
f 9 17 21 
f 10 24 12 
f 11 12 19 
f 11 19 20 
f 12 24 19 
f 13 17 14 
f 13 15 17 
f 13 20 15 
f 15 23 17 
f 15 16 23 
f 15 20 16 
f 16 22 23 
f 16 20 25 
f 16 25 22 
f 17 23 21 
f 19 24 25 
f 19 25 20 
f 21 22 24 
f 21 23 22 
f 22 25 24 
