#  wavefront obj file written by the visualization toolkit

mtllib shape0.mtl

v 1.6154899597167969 -0.7582200169563293 -0.6323800086975098
v 0.3244999945163727 1.5384900569915771 -0.6561200022697449
v -0.3244999945163727 1.5384900569915771 -0.6561200022697449
v -1.6154899597167969 -0.7582200169563293 -0.6323800086975098
v 1.5395499467849731 -0.8897600173950195 -0.6310200095176697
v -1.5395499467849731 -0.8897600173950195 -0.6310200095176697
v 0 0.4869700074195862 1.6506400108337402
v 0 1.7293200492858887 -0.11334999650716782
v 0.3591499924659729 -0.15008999407291412 1.6545900106430054
v 1.6153299808502197 -0.8485599756240845 -0.5037099719047546
v -0.3591499924659729 -0.15008999407291412 1.6545900106430054
v -1.615339994430542 -0.8485599756240845 -0.5037099719047546

g grp1
usemtl mtl1
f 1 5 6 4 
f 1 4 3 2 
f 1 10 5 
f 1 9 10 
f 1 2 9 
f 2 3 8 
f 2 8 9 
f 3 12 8 
f 3 4 12 
f 4 6 12 
f 5 10 12 6 
f 7 8 11 
f 7 9 8 
f 7 11 9 
f 8 12 11 
f 9 11 12 10 
